<svg width="1451" height="227" viewBox="0 0 1451 227" fill="none" xmlns="http://www.w3.org/2000/svg">
<path d="M1003.67 30.8001C1003.27 31.8667 1003.13 62.0001 1003.27 98.0001L1003.67 163.333L1038.33 163.733C1078.2 164.267 1087.4 163.2 1097.8 156.933C1114.6 146.8 1120.6 127.067 1112.6 108.933C1109.53 102.133 1102.6 95.2001 1097 93.2001L1092.73 91.6001L1099.8 84.8001C1109.27 75.4667 1111.67 66.4001 1108.07 52.2667C1105.93 43.8667 1097.53 35.6001 1088.07 32.5334C1078.33 29.4667 1004.73 28.0001 1003.67 30.8001ZM1074.47 55.8667C1083.27 61.2001 1083.27 76.1334 1074.6 81.3334C1070.87 83.6001 1067.8 84.0001 1052.07 84.0001H1033.67V68.6667V53.3334H1052.07C1067.67 53.3334 1070.87 53.7334 1074.47 55.8667ZM1073.93 105.333C1083.8 108.133 1089.13 119.467 1085.53 130C1084.07 134.133 1082.47 136 1077.67 138.267C1072.33 141.067 1069.8 141.333 1052.73 141.333H1033.67V122.667V104H1051.4C1061 104 1071.27 104.667 1073.93 105.333Z" fill="black"/>
<path d="M1355.53 31.0666C1355.27 32 1355.13 62.1333 1355.27 98L1355.67 163.333L1368.73 163.733L1381.67 164.133V147.6V131.2L1386.73 126.267C1389.53 123.6 1392.07 121.333 1392.47 121.333C1392.87 121.333 1399.13 130.933 1406.33 142.667L1419.4 164H1435.13C1443.93 164 1451 163.733 1451 163.333C1451 163.067 1441.93 149.2 1431 132.667L1411 102.533L1429.27 84.6666L1447.67 66.8L1432.33 66.6666H1417L1400.33 83.3333C1391.13 92.5333 1383.27 100 1382.73 100C1382.07 100 1381.67 84.1333 1381.67 64.6666V29.3333H1369C1359.8 29.3333 1356.07 29.8666 1355.53 31.0666Z" fill="black"/>
<path d="M1164.33 65.4666C1155 67.0666 1144.07 72.3999 1139.8 77.3333C1135.8 82.1333 1131.8 92.5333 1132.73 95.3333C1133.4 96.9333 1136.07 97.3333 1145.67 97.3333H1157.67L1159.8 91.9999C1162.6 84.9333 1167.13 82.6666 1178.33 82.6666C1185.93 82.6666 1187.53 83.0666 1190.47 85.9999C1193.13 88.6666 1193.8 90.3999 1193.4 95.0666C1193 99.9999 1192.47 100.933 1188.2 103.067C1185.53 104.267 1176.87 106.267 1168.87 107.333C1139.13 111.2 1129.8 118.533 1129.67 137.6C1129.67 150 1134.07 157.333 1145 162.933C1156.6 168.933 1179 166.933 1189.53 159.067C1194.2 155.467 1196.2 156.267 1196.33 161.6C1196.33 163.733 1197.93 164 1209.8 164C1223.27 164 1223.27 164 1222.33 160.933C1221.8 159.333 1221 141.2 1220.47 120.667C1219.67 86.3999 1219.4 82.9333 1217 78.6666C1210.33 67.4666 1187.53 61.7333 1164.33 65.4666ZM1192.33 136.267C1189.8 144.933 1178.87 150.4 1167.93 148.667C1160.47 147.333 1156.33 142.933 1156.33 136C1156.33 128.667 1160.73 124.667 1170.73 122.667C1175 121.867 1181.67 120.4 1185.67 119.6L1193 118L1193.4 124.667C1193.67 128.267 1193.27 133.6 1192.33 136.267Z" fill="black"/>
<path d="M1287.8 65.4667C1280.87 67.0667 1274.47 71.2 1270.33 76.4L1267 80.6667V73.6V66.6667H1254.33H1241.67V115.333V164H1254.87H1268.2L1268.6 131.6C1269 102 1269.27 98.9333 1271.67 94.6667C1279.13 81.8667 1300.6 82.4 1304.2 95.6C1305 98.5333 1305.67 114.267 1305.67 132.267V164H1319H1332.33V128.267C1332.33 88.5333 1331.4 82.2667 1324.2 74.1333C1322.07 71.6 1317.8 68.6667 1314.73 67.4667C1307.93 64.6667 1294.73 63.7333 1287.8 65.4667Z" fill="black"/>
<path d="M400.333 29.0667C378.333 34.8 361.133 52.9334 355.667 76.1334C353.133 86.9334 353.133 109.2 355.667 118.533C361.533 140.8 377.133 157.733 397.8 164.133C409 167.6 427.8 167.6 439.267 164C459.4 157.867 474.333 140 477.133 118.8L478.067 112H464.067H450.067L447.933 120C445.133 129.867 437 138.933 429 141.2C411.267 146 395 138.4 387.133 121.467C382.333 110.8 381.533 90.6667 385.4 77.7334C390.733 60.5334 401.667 52 418.467 52C426.6 52 428.733 52.5334 435 56.2667C440.733 59.7334 443 62.1334 445.667 67.6L449 74.5334H462.733C476.333 74.6667 476.333 74.6667 476.333 71.3334C476.333 64.5334 470.733 53.2 463.4 45.3334C448.333 28.9334 424.333 22.8 400.333 29.0667Z" fill="black"/>
<path d="M679 54.1334V78.9334L675.267 74.9334C668.733 67.8667 660.867 64.8 649.667 64.8C632.333 64.8 619 73.4667 611.4 89.8667C607.933 97.4667 607.667 99.0667 607.667 115.333C607.667 132.133 607.8 132.933 612.067 141.6C617.667 153.2 627.267 161.867 637.4 164.8C652.6 169.2 670.067 164.933 677.533 155.067L680.2 151.333L680.333 157.6V164H693H705.667L705.4 96.9334L705 30L692.067 29.6L679 29.2V54.1334ZM663.133 85.3334C673.667 88.2667 679.133 98.6667 679.133 115.733C679.133 125.6 678.6 128.267 675.4 134.533C670.6 143.867 665.267 147.067 655.267 146.267C646.333 145.6 642.067 142.533 637.4 133.333C634.333 127.333 633.667 124.533 633.667 116.133C633.667 103.333 635.4 97.2 640.6 91.3334C646.2 84.8 653.933 82.8 663.133 85.3334Z" fill="black"/>
<path d="M726.867 36.6667C726.733 40.6667 726.733 45.6 726.6 47.6L726.467 51.3334H739.8C751.533 51.3334 753 51.0667 752.867 48.9334C752.733 47.7334 752.6 42.8 752.467 38L752.333 29.3334H739.667H727L726.867 36.6667Z" fill="black"/>
<path d="M531 65.3333C515.533 68.6667 501.8 80.1333 496.2 94.4C491.933 105.2 491.933 125.467 496.2 136.267C504.2 156.933 522.733 168 546.867 166.267C565.667 165.067 581.667 154.667 588.333 139.6C594.6 125.467 594.467 104.667 588.067 90.9333C583.667 81.6 573.133 71.6 563.8 68.1333C555 64.8 539.667 63.6 531 65.3333ZM549.8 85.3333C560.333 88.2667 566.067 99.0667 566.067 116C566.067 136.667 557.4 147.333 541.267 146.267C531.8 145.733 527.533 142.8 523 133.867C520.2 128.4 519.667 125.467 519.667 115.333C519.667 99.7333 523.267 91.6 532.333 86.9333C538.867 83.7333 542.6 83.3333 549.8 85.3333Z" fill="black"/>
<path d="M817.933 66.4C813.533 68 808.467 71.2 804.867 74.8L799 80.5333V73.6V66.6667H786.333H773.667V115.333V164H786.867H800.067L800.6 132.267C801.133 102.533 801.267 100.267 804.067 94.9333C807.933 87.7333 814.067 84.8 823.4 85.7333C831.267 86.4 835.533 90.1333 837.533 98C838.333 101.467 839 116.533 839 133.867V164H852.467H865.933L865.267 126.933C864.733 88.6667 864.2 84.1333 858.6 75.8667C851.933 66 832.067 61.3333 817.933 66.4Z" fill="black"/>
<path d="M913.4 65.7334C895 70.9334 883 89.6 883 112.533C883 131.067 889 145.867 899.4 153.467C915 164.8 939.4 163.333 950.2 150.667L953.667 146.4V156.667C953.667 174.4 948.333 181.467 934.467 182.4C924.067 183.067 917.667 180.4 914.2 173.867L911.667 169.333H899.4C892.733 169.333 886.867 169.867 886.467 170.4C885.133 172.667 888.867 181.467 893.4 186.8C902.867 197.733 920.867 202.933 939.8 200.133C958.067 197.467 969.667 190 975.533 177.333C978.2 171.6 978.333 168.8 978.733 118.933L979.133 66.6667H966.333H953.667V72.8V78.8L949.133 74.1334C946.733 71.4667 942.467 68.4 939.8 67.3334C932.867 64.4 920.733 63.7334 913.4 65.7334ZM943 87.6C952.067 92.9334 956.733 113.067 951.8 126C947.667 136.533 937.133 142.933 927 140.8C916.467 138.8 910.867 130.133 909.933 114.533C909.4 105.6 909.8 103.333 912.733 96.8C915.667 90.5334 917.267 88.8 921.933 86.5334C928.467 83.4667 936.867 83.8667 943 87.6Z" fill="black"/>
<path d="M726.733 68.9333C726.467 70.1333 726.467 92 726.733 117.6L727.133 164H739.667H752.333V115.333V66.6667H739.8C729.133 66.6667 727.133 67.0667 726.733 68.9333Z" fill="black"/>
<path d="M47.8 3.06664C42.6 8.26664 42.0666 14.4 46.2 22.4C48.3333 26.5333 49.6666 31.4666 49.6666 34.8C49.6666 39.6 48.7333 41.2 41.1333 49.6C36.3333 54.8 29.9333 63.7333 26.7333 69.4666C22.7333 76.8 20.2 79.8666 18.4666 80C13.8 80 4.99998 85.2 2.59998 89.2C0.733313 92.4 0.333313 96.5333 0.333313 112.267C0.333313 128.8 0.733313 131.867 2.99998 135.6C5.79998 140.4 11.8 144 16.8666 144C19.6666 144 21 145.6 25.8 154.667C29.5333 162 35 169.333 42.6 177.467C55.6666 191.467 58.8666 197.6 59 208.267C59 224.933 62.0666 226.667 91 226.667C115.533 226.667 119.133 225.6 121.8 218C123.533 213.467 123.667 213.333 130.6 213.333C136.867 213.333 137.667 213.6 137.667 216.133C137.667 217.6 139.4 220.667 141.533 222.8C145 226.267 146.333 226.667 153.533 226.667H161.667V219.333V212H157H152.333V204.267V196.667H130.333H108.467L108.067 204L107.667 211.333L91.5333 211.733L75.2667 212.133L74.4667 203.6C73 191.067 68.8666 183.6 56.2 170.533C44.7333 158.933 37.1333 146.933 33.6666 135.067L31.9333 129.467L23.8 129.067L15.6666 128.667L15.2666 112.8C15 100.933 15.4 96.6666 16.6 95.7333C17.5333 95.2 21.4 94.6666 25.1333 94.6666H31.9333L34.7333 86.9333C38.7333 76.2666 44.6 67.6 55.4 56.4L64.6 46.8L64.0666 35.0666C63.6666 27.6 62.6 21.7333 61.2666 18.9333C59.9333 16.6666 59.5333 14.6666 60.2 14.6666C64.3333 14.6666 76.7333 20.6666 80.8667 24.8L85.8 29.4666L91.6667 25.7333C95 23.7333 97.6667 21.6 97.6667 20.9333C97.6667 20.4 95.2667 17.6 92.2 14.5333C84.4667 6.79997 71.2667 0.933306 60.0666 0.266639C51.9333 -0.266694 50.8666 -2.71797e-05 47.8 3.06664Z" fill="black"/>
<path d="M110.867 13.8667C110.6 14.1334 110.6 17.7334 110.733 21.8667L111.267 29.3334L118.733 28.5334C123 28 126.6 27.4667 126.867 27.2C127 27.0667 126.867 23.7334 126.333 20.1334L125.4 13.3334H118.467C114.6 13.3334 111.133 13.6 110.867 13.8667Z" fill="black"/>
<path d="M139.667 20.1333C139 25.0667 139.133 27.3333 140.333 28C143 29.6 152.6 30.9333 153.8 29.7333C154.333 29.2 155.133 25.8667 155.667 22.5333C156.6 16.4 156.6 16.2667 152.467 15.4667C139.267 12.9333 140.733 12.4 139.667 20.1333Z" fill="black"/>
<path d="M168.333 26C166.867 29.4667 165.667 32.6667 165.667 33.2C165.667 34.1333 176.867 40 178.867 40C179.533 40 181.267 36.9333 182.733 33.2L185.533 26.5333L180.6 24.4C177.933 23.3333 174.6 21.8667 173.267 21.0667C171.4 20.1333 170.467 20.9333 168.333 26Z" fill="black"/>
<path d="M193.667 40.2667L189.267 45.7333L195.133 50.8C198.333 53.6 201.267 55.8667 201.667 56C202.067 56 204.333 53.4667 206.867 50.4L211.4 44.9333L206.867 41.0667C198.733 34.2667 198.467 34.2667 193.667 40.2667Z" fill="black"/>
<path d="M215.533 59.6C212.733 61.4667 210.067 63.2 209.8 63.4667C209.533 63.7334 211.267 66.9334 213.667 70.6667L217.933 77.3334L223.267 74.4C230.067 70.5334 230.6 69.0667 227.133 63.4667C222.467 56 221.4 55.6 215.533 59.6Z" fill="black"/>
<path d="M227.267 85.4667C223.267 86.6667 222.867 87.2 223.667 90.2667C224.067 92.1334 224.867 95.3334 225.267 97.4667C226.067 101.733 227.533 102.133 235.4 99.8667C240.867 98.4 241 98.2667 238.867 89.8667C237.267 83.4667 235.933 82.9334 227.267 85.4667Z" fill="black"/>
<path d="M212.333 116.133C199.267 122 193.533 131.2 192.6 147.6L191.933 158.667H184.867H177.667V192.667V226.667H226.333H275L274.733 192.933L274.333 159.333L266.733 158.933L259 158.533V148.267C259 136.4 256.467 129.6 249.533 122.8C240.067 113.333 224.6 110.533 212.333 116.133ZM235.133 131.067C241.267 135.2 244.333 141.733 244.333 150.933V158.667H225.533H206.6L207.267 149.333C208.067 138.933 210.333 134.533 216.733 130.667C222.467 127.067 229.533 127.333 235.133 131.067ZM258.733 192.933L259.133 212H225.667H192.333V193.6C192.333 183.467 192.733 174.667 193.267 174.133C193.8 173.6 208.733 173.333 226.333 173.6L258.333 174L258.733 192.933Z" fill="black"/>
</svg>
